<svg version="1.1"  xmlns="http://www.w3.org/2000/svg">

<symbol id="expandClose" viewBox="0 0 24 21">
<path d="M3.03297 13.9995L3.08248 19.9993L1.08255 20.0158L1.03304 14.016L3.03297 13.9995Z"/>
<path d="M2.96696 5.9998L2.91745 0L0.917523 0.0165024L0.96703 6.0163L2.96696 5.9998Z"/>
<path d="M3.67205 11.1053C3.88909 10.7746 4.0032 10.387 3.99993 9.99141C3.99077 8.88145 3.09346 7.99882 1.9835 8.00798C1.58795 8.01124 1.20225 8.13173 0.875177 8.3542C0.548103 8.57667 0.294344 8.89113 0.145989 9.25782C-0.00236528 9.6245 -0.0386525 10.027 0.0417165 10.4143C0.122085 10.8016 0.315501 11.1564 0.597504 11.4337C0.879508 11.7111 1.23743 11.8987 1.62602 11.9726C2.0146 12.0466 2.4164 12.0037 2.78059 11.8493C3.14478 11.6949 3.45501 11.436 3.67205 11.1053Z"/>
<path fill-rule="evenodd" clip-rule="evenodd" d="M20.9333 1.85141C22.0433 1.84225 22.9406 2.72488 22.9498 3.83484L23.0488 15.8344C23.058 16.9444 22.1753 17.8417 21.0654 17.8509L9.06577 17.9499C8.53536 17.9543 8.02493 17.7477 7.64677 17.3758C7.26862 17.0038 7.05371 16.4969 7.04934 15.9665L7.01633 11.9666L4.9999 9.98316L6.98333 7.96672L6.95032 3.96686C6.94595 3.43644 7.15246 2.92601 7.52442 2.54786C7.89639 2.16971 8.40334 1.9548 8.93375 1.95042L20.9333 1.85141ZM12.5842 9.16836C12.216 9.16836 11.9175 9.46684 11.9175 9.83503C11.9175 10.2032 12.216 10.5017 12.5842 10.5017H17.9175C18.2857 10.5017 18.5842 10.2032 18.5842 9.83503C18.5842 9.46684 18.2857 9.16836 17.9175 9.16836H12.5842Z" />
</symbol>

<symbol id="expandOpen" viewBox="0 0 24 21">
<path d="M3.11543 13.9995L3.16494 19.9993L1.16501 20.0158L1.1155 14.016L3.11543 13.9995Z"/>
<path d="M3.04942 5.9998L2.99991 0L0.999981 0.0165024L1.04949 6.0163L3.04942 5.9998Z"/>
<path d="M3.75451 11.1053C3.97155 10.7746 4.08566 10.387 4.08239 9.99141C4.07323 8.88145 3.17592 7.99882 2.06596 8.00798C1.67041 8.01124 1.28471 8.13173 0.957635 8.3542C0.630561 8.57667 0.376803 8.89113 0.228448 9.25782C0.0800932 9.6245 0.043806 10.027 0.124175 10.4143C0.204544 10.8016 0.397959 11.1564 0.679963 11.4337C0.961966 11.7111 1.31989 11.8987 1.70848 11.9726C2.09706 12.0466 2.49886 12.0037 2.86305 11.8493C3.22724 11.6949 3.53747 11.436 3.75451 11.1053Z"/>
<path fill-rule="evenodd" clip-rule="evenodd" d="M21.0158 1.85141C22.1258 1.84225 23.0231 2.72488 23.0322 3.83484L23.1313 15.8344C23.1404 16.9444 22.2578 17.8417 21.1478 17.8509L9.14823 17.9499C8.61782 17.9543 8.10739 17.7477 7.72923 17.3758C7.35108 17.0038 7.13617 16.4969 7.1318 15.9665L7.09879 11.9666L5.08236 9.98316L7.06579 7.96672L7.03278 3.96686C7.02841 3.43644 7.23491 2.92601 7.60688 2.54786C7.97885 2.16971 8.4858 1.9548 9.01621 1.95042L21.0158 1.85141ZM15.3333 13.1684C14.9651 13.1684 14.6667 12.8699 14.6667 12.5017V10.5017H12.6667C12.2985 10.5017 12 10.2032 12 9.83504C12 9.46685 12.2985 9.16837 12.6667 9.16837H14.6667V7.16837C14.6667 6.80018 14.9651 6.50171 15.3333 6.50171C15.7015 6.50171 16 6.80018 16 7.16837V9.16837L18 9.16837C18.3682 9.16837 18.6667 9.46685 18.6667 9.83504C18.6667 10.2032 18.3682 10.5017 18 10.5017H16V12.5017C16 12.8699 15.7015 13.1684 15.3333 13.1684Z"/>
</symbol>



</svg>


